<svg width="265" height="77" viewBox="0 0 265 77" fill="none" xmlns="http://www.w3.org/2000/svg">
<path d="M36.5005 20.2775C36.8697 19.5392 37.2183 19.047 37.5465 18.8009C37.8746 18.5548 38.3668 18.4318 39.0231 18.4318H42.1609C43.0223 18.4318 43.453 18.6984 43.453 19.2316C43.453 19.4367 43.3504 19.7853 43.1453 20.2775L24.5645 59.2851C24.2363 60.0234 23.9287 60.6386 23.6416 61.1308C23.3545 61.6231 23.1084 61.9512 22.9033 62.1153C22.7392 62.2793 22.5136 62.3614 22.2265 62.3614C21.8573 62.3614 21.5087 62.1563 21.1805 61.7461C20.8934 61.3359 20.4627 60.5156 19.8885 59.2851L1.2461 20.2775C1.04102 19.7853 0.938474 19.4367 0.938474 19.2316C0.938474 18.6984 1.36916 18.4318 2.23052 18.4318H5.61445C6.27073 18.4318 6.76294 18.5548 7.09108 18.8009C7.41922 19.047 7.74736 19.5392 8.0755 20.2775L22.3495 50.9175L36.5005 20.2775ZM61.1388 60.1464C61.1388 60.6797 61.0363 61.0488 60.8312 61.2539C60.6261 61.418 60.2775 61.5 59.7853 61.5H56.3398C55.8476 61.5 55.4989 61.418 55.2939 61.2539C55.0888 61.0488 54.9862 60.6797 54.9862 60.1464V19.7853C54.9862 19.2521 55.0888 18.9035 55.2939 18.7394C55.4989 18.5343 55.8476 18.4318 56.3398 18.4318H59.7853C60.2775 18.4318 60.6261 18.5343 60.8312 18.7394C61.0363 18.9035 61.1388 19.2521 61.1388 19.7853V60.1464ZM106.937 19.7853C106.937 19.2521 107.039 18.9035 107.244 18.7394C107.45 18.5343 107.798 18.4318 108.29 18.4318H111.736C112.228 18.4318 112.577 18.5343 112.782 18.7394C112.987 18.9035 113.089 19.2521 113.089 19.7853V60.1464C113.089 61.5 112.679 62.1768 111.859 62.1768C111.531 62.1768 111.182 62.0332 110.813 61.7461C110.444 61.5 109.931 61.0078 109.275 60.2695L84.2952 30.7985V60.1464C84.2952 60.6797 84.1927 61.0488 83.9876 61.2539C83.7825 61.418 83.4339 61.5 82.9416 61.5H79.4962C79.004 61.5 78.6553 61.418 78.4502 61.2539C78.2452 61.0488 78.1426 60.6797 78.1426 60.1464V19.7853C78.1426 19.088 78.2452 18.5753 78.4502 18.2472C78.6553 17.919 78.9835 17.755 79.4347 17.755C79.7628 17.755 80.1114 17.8985 80.4806 18.1857C80.8498 18.4318 81.342 18.924 81.9572 19.6623L106.937 49.1333V19.7853ZM127.495 40.1505C127.495 35.9667 128.459 32.1726 130.387 28.7681C132.356 25.3227 135.022 22.636 138.385 20.7082C141.79 18.7394 145.584 17.755 149.768 17.755C153.951 17.755 157.725 18.7189 161.088 20.6467C164.452 22.5745 167.097 25.2201 169.025 28.5836C170.953 31.947 171.917 35.7206 171.917 39.9044C171.917 44.0881 170.933 47.8822 168.964 51.2867C167.036 54.6911 164.37 57.3572 160.965 59.2851C157.561 61.2129 153.746 62.1768 149.521 62.1768C145.379 62.1768 141.626 61.2334 138.262 59.3466C134.94 57.4188 132.315 54.7732 130.387 51.4097C128.459 48.0463 127.495 44.2932 127.495 40.1505ZM133.894 40.0889C133.894 43.1652 134.571 45.9544 135.924 48.4565C137.319 50.9175 139.206 52.8453 141.585 54.2399C144.005 55.6345 146.671 56.3318 149.583 56.3318C152.495 56.3318 155.161 55.6345 157.581 54.2399C160.042 52.8043 161.97 50.8355 163.365 48.3334C164.8 45.8314 165.518 43.0422 165.518 39.9659C165.518 36.8075 164.821 33.9979 163.426 31.5368C162.032 29.0348 160.124 27.0864 157.704 25.6918C155.284 24.2972 152.618 23.5999 149.706 23.5999C146.794 23.5999 144.128 24.3178 141.708 25.7534C139.288 27.148 137.38 29.0963 135.986 31.5983C134.591 34.1004 133.894 36.9306 133.894 40.0889ZM215.527 20.2775C215.896 19.5392 216.245 19.047 216.573 18.8009C216.901 18.5548 217.393 18.4318 218.049 18.4318H221.187C222.049 18.4318 222.479 18.6984 222.479 19.2316C222.479 19.4367 222.377 19.7853 222.172 20.2775L203.591 59.2851C203.263 60.0234 202.955 60.6386 202.668 61.1308C202.381 61.6231 202.135 61.9512 201.93 62.1153C201.766 62.2793 201.54 62.3614 201.253 62.3614C200.884 62.3614 200.535 62.1563 200.207 61.7461C199.92 61.3359 199.489 60.5156 198.915 59.2851L180.272 20.2775C180.067 19.7853 179.965 19.4367 179.965 19.2316C179.965 18.6984 180.396 18.4318 181.257 18.4318H184.641C185.297 18.4318 185.789 18.5548 186.117 18.8009C186.446 19.047 186.774 19.5392 187.102 20.2775L201.376 50.9175L215.527 20.2775ZM228.939 59.6542C228.611 60.3925 228.282 60.8847 227.954 61.1308C227.626 61.3769 227.134 61.5 226.478 61.5H223.278C222.458 61.5 222.048 61.2334 222.048 60.7002C222.048 60.4951 222.15 60.1464 222.355 59.6542L240.875 20.6467C241.49 19.3752 241.941 18.5548 242.228 18.1857C242.515 17.7755 242.864 17.5704 243.274 17.5704C243.643 17.5704 243.951 17.7755 244.197 18.1857C244.484 18.5548 244.935 19.3752 245.551 20.6467L264.255 59.6542C264.46 60.1464 264.562 60.4951 264.562 60.7002C264.562 61.2334 264.132 61.5 263.27 61.5H259.825C259.168 61.5 258.676 61.3769 258.348 61.1308C258.061 60.8847 257.733 60.3925 257.364 59.6542L243.151 29.0142L228.939 59.6542Z" fill="#0000FE"/>
<circle cx="150" cy="39" r="20" fill="#0000FE"/>
</svg>
